<svg id="Layer_1" data-name="Layer 1" xmlns="http://www.w3.org/2000/svg" viewBox="0 0 434.97 434.81"><title>Logo-ITENAS</title><rect x="63.91" y="63.72" width="307.48" height="307.21" transform="translate(217.42 -90.25) rotate(45)" style="fill:#fff"/><path d="M351.44,293.18H83.62q67-114.92,133.91-229.75Z" transform="translate(0 0)"/><path d="M118.22,99.33,217.55,0l99.58,99.58c-27.94-23.44-61.44-36.31-99.61-36.31S145.86,76.15,118.22,99.33Z" transform="translate(0 0)"/><path d="M119,336c26.87,22.55,60.37,35.41,98.54,35.4s71.66-12.88,100.9-37.25q-50.38,50.37-100.68,100.62Z" transform="translate(0 0)"/><path d="M335.46,117.94c32.44,32.43,66,66,99.42,99.42-33.45,33.45-67,67-99.48,99.48,23.41-28,36.22-61.41,36.22-99.49S358.8,145.84,335.46,117.94Z" transform="translate(0 0)"/><path d="M0,217.45c33.62-33.63,67.15-67.16,100.06-100.06-23.79,28.43-36.61,61.85-36.62,99.93s12.8,71.52,37,100.82Z" transform="translate(0 0)"/></svg>